# xmcd
#
# Track frame offsets:
#       150
#       18825
#       39112
#       61692
#       84742
#       100742
#       116182
#       135140
#       155852
#       170330
#
# Disc length: 2615 seconds
#
# Revision: 0
# Processed by: cddbd v1.5.1PL0 Copyright (c) Steve Scherf et al.
# Submitted via: WhereIsIt 3.65
#
DISCID=700a350a
DTITLE=April Cope - Two Moons
DYEAR=1997
DGENRE=Bluegrass
TTITLE0=Two Moons
TTITLE1=Pictures on the Wall
TTITLE2=Burning Down
TTITLE3=Man In My Room
TTITLE4=Wildflower Hills
TTITLE5=Magdelena
TTITLE6=Will of the Wind
TTITLE7=Janderidi
TTITLE8=Wine Country
TTITLE9=Iowa Road
EXTD=Acorn Music, 1997
EXTT0=
EXTT1=
EXTT2=
EXTT3=
EXTT4=
EXTT5=
EXTT6=
EXTT7=
EXTT8=
EXTT9=
PLAYORDER=
